<?xml version="1.0" encoding="utf-8"?>
<!-- Generator: Adobe Illustrator 21.0.2, SVG Export Plug-In . SVG Version: 6.00 Build 0)  -->
<svg version="1.1" id="Layer_1" xmlns="http://www.w3.org/2000/svg" xmlns:xlink="http://www.w3.org/1999/xlink" x="0px" y="0px"
	 viewBox="0 0 48 48" style="enable-background:new 0 0 48 48;" xml:space="preserve">
<style type="text/css">
	.st0{fill:#ffffff;}
	.st1{fill:none;stroke:#ffffff;stroke-width:2;stroke-linecap:round;stroke-linejoin:round;stroke-miterlimit:10;}
</style>
<g>
	<g>
		<path class="st0" d="M4.5,2.4C5.1,2.4,5.6,2.6,6,3l10.8,10.8c0.4,0.4,0.9,0.6,1.4,0.6s1-0.2,1.4-0.6l6.9-6.9
			c0.4-0.4,0.9-0.6,1.5-0.6s1.1,0.2,1.5,0.6l3.8,3.8l11.8,11.8L31.5,36.2l-8.2-1.8c-0.1,0-0.3,0-0.4,0c-0.7,0-1.3,0.3-1.7,0.9
			c-0.5,0.7-0.4,1.6,0,2.3l3.7,5.3l-2.4,2.4L10.8,33.5l-3.9-3.9c-0.4-0.4-0.6-0.9-0.6-1.5s0.2-1.1,0.6-1.5l6.8-6.9
			c0.8-0.8,0.8-2,0-2.8L3,6.1C2.6,5.7,2.4,5.1,2.4,4.5S2.6,3.4,3,3C3.4,2.6,3.9,2.4,4.5,2.4 M4.5,0.4c-1.1,0-2.1,0.4-2.9,1.2
			C0.8,2.4,0.4,3.4,0.4,4.5s0.4,2.2,1.2,2.9c0.6,0.6,8.5,8.5,10.7,10.7l-6.8,6.9c-0.8,0.8-1.2,1.8-1.2,2.9c0,1.1,0.4,2.2,1.2,2.9
			l3.9,3.9l12.5,12.5c0.2,0.2,0.4,0.2,0.6,0.2c0.2,0,0.4-0.1,0.6-0.2l3.9-3.9c0.3-0.3,0.3-0.7,0.1-1.1l-4.3-6.1l8.8,1.9
			c0.1,0,0.1,0,0.2,0c0.2,0,0.4-0.1,0.6-0.2l14.9-14.9c0.3-0.3,0.3-0.8,0-1.2L34.8,9.4L31,5.5c-0.8-0.8-1.9-1.2-2.9-1.2
			c-1.1,0-2.1,0.4-2.9,1.2l-6.9,6.9L7.4,1.6C6.6,0.8,5.6,0.4,4.5,0.4L4.5,0.4z"/>
	</g>
	<line class="st1" x1="9.8" y1="33.6" x2="33.5" y2="9.9"/>
	<line class="st1" x1="37.2" y1="30.2" x2="32.5" y2="25.5"/>
</g>
</svg>
