<?xml version="1.0" encoding="utf-8"?>
<!-- Generator: Adobe Illustrator 21.0.2, SVG Export Plug-In . SVG Version: 6.00 Build 0)  -->
<svg version="1.1" id="Layer_1" xmlns="http://www.w3.org/2000/svg" xmlns:xlink="http://www.w3.org/1999/xlink" x="0px" y="0px"
	 viewBox="0 0 48 48" style="enable-background:new 0 0 48 48;" xml:space="preserve">
<style type="text/css">
	.st0{fill:#ffffff;}
</style>
<g>
	<g>
		<path class="st0" d="M29.9,5.3l2.2,4.3c0.3,0.7,1,1.1,1.8,1.1h9.1c1.6,0,2.9,1.3,2.9,2.9v26.2c0,1.6-1.3,2.9-2.9,2.9H5.1
			c-1.6,0-2.9-1.3-2.9-2.9V13.6c0-1.6,1.3-2.9,2.9-2.9h9.1c0.8,0,1.4-0.4,1.8-1.1l2.2-4.3H29.9 M30.5,3.3h-13c-0.5,0-0.8,0.3-1,0.6
			l-2.4,4.8H5.1c-2.7,0-4.9,2.2-4.9,4.9v26.2c0,2.7,2.2,4.9,4.9,4.9h37.9c2.7,0,4.9-2.2,4.9-4.9V13.6c0-2.7-2.2-4.9-4.9-4.9h-9.1
			l-2.4-4.8C31.3,3.6,30.9,3.3,30.5,3.3L30.5,3.3z"/>
	</g>
	<g>
		<path class="st0" d="M24,17.7c4.8,0,8.7,3.9,8.7,8.7s-3.9,8.7-8.7,8.7s-8.7-3.9-8.7-8.7S19.2,17.7,24,17.7 M24,15.7
			c-5.9,0-10.7,4.8-10.7,10.7S18.1,37.1,24,37.1s10.7-4.8,10.7-10.7S29.9,15.7,24,15.7L24,15.7z"/>
	</g>
</g>
</svg>
