<?xml version="1.0" encoding="iso-8859-1"?>
<!-- Generator: Adobe Illustrator 22.0.1, SVG Export Plug-In . SVG Version: 6.00 Build 0)  -->
<svg version="1.1" id="Layer_1" xmlns="http://www.w3.org/2000/svg" xmlns:xlink="http://www.w3.org/1999/xlink" x="0px" y="0px"
	 viewBox="0 0 582.939 557.363" style="enable-background:new 0 0 582.939 557.363;" xml:space="preserve">
<path style="fill:#ffffff;" d="M220.02,0.02c-77.288,0-139.942,62.654-139.942,139.942s62.654,139.942,139.942,139.942
	s139.942-62.654,139.942-139.942S297.308,0.02,220.02,0.02z M220.02,237.439c-53.835,0-97.477-43.642-97.477-97.477
	s43.642-97.477,97.477-97.477s97.477,43.642,97.477,97.477S273.855,237.439,220.02,237.439z"/>
<path style="fill:#ffffff;" d="M468.055,303.247V183.607h33.672c12.319,0,22.305-9.986,22.305-22.305s-9.986-22.305-22.305-22.305
	h-33.672V96.692c0.358,0.017,0.71,0.054,1.072,0.054h71.204c12.319,0,22.305-9.986,22.305-22.305s-9.986-22.305-22.305-22.305
	h-71.204c-0.362,0-0.715,0.037-1.072,0.054V25.113c0-13.859-11.235-25.093-25.093-25.093c-13.858,0-25.093,11.234-25.093,25.093
	v278.134c-64.77,10.833-113.884,62.784-113.884,125.284c0,70.359,62.222,127.395,138.977,127.395s138.977-57.037,138.977-127.395
	C581.939,366.031,532.825,314.081,468.055,303.247z M442.962,511.532c-50.007,0-90.546-37.16-90.546-83s40.539-83,90.546-83
	s90.546,37.16,90.546,83S492.969,511.532,442.962,511.532z"/>
<g>
	<path style="fill:#ffffff;" d="M302.984,346.362c-25.591-10.48-53.599-16.272-82.964-16.272
		c-120.995,0-219.081,98.086-219.081,219.081c0,2.91,0.074,5.803,0.187,8.686h40.207c-0.138-2.879-0.213-5.773-0.213-8.686
		c0-98.804,80.097-178.901,178.901-178.901c21.486,0,42.086,3.792,61.172,10.736C286.562,368.418,293.942,356.761,302.984,346.362z"
		/>
</g>
</svg>
