<?xml version="1.0" encoding="utf-8"?>
<!-- Generator: Adobe Illustrator 21.0.2, SVG Export Plug-In . SVG Version: 6.00 Build 0)  -->
<svg version="1.1" id="Layer_1" xmlns="http://www.w3.org/2000/svg" xmlns:xlink="http://www.w3.org/1999/xlink" x="0px" y="0px"
	 viewBox="0 0 48 48" style="enable-background:new 0 0 48 48;" xml:space="preserve">
<style type="text/css">
	.st0{fill:#010101;}
	.st1{fill:none;stroke:#010101;stroke-width:2;stroke-linecap:round;stroke-linejoin:round;stroke-miterlimit:10;}
</style>
<g>
	<g>
		<g>
			<path class="st0" d="M21.2,0.4v2c5.1,0,9.9,2.2,13.3,6.1c6.3,7.3,5.6,18.4-1.8,24.8c-3.2,2.8-7.3,4.3-11.5,4.3
				c-5.1,0-9.9-2.2-13.3-6.1C4.8,28,3.3,23.4,3.6,18.7c0.3-4.7,2.5-9,6-12c3.2-2.8,7.3-4.3,11.5-4.3L21.2,0.4 M21.2,0.4
				C16.6,0.4,12,2,8.3,5.2c-8.2,7.1-9.1,19.4-2,27.6c3.9,4.5,9.3,6.8,14.8,6.8c4.5,0,9.1-1.6,12.8-4.8c8.2-7.1,9.1-19.4,2-27.6
				C32.1,2.7,26.6,0.4,21.2,0.4L21.2,0.4z"/>
		</g>
		<line class="st1" x1="34.3" y1="34.8" x2="46.4" y2="46.8"/>
	</g>
</g>
</svg>
