<svg xmlns="http://www.w3.org/2000/svg" xmlns:xlink="http://www.w3.org/1999/xlink" width="20" height="20" viewBox="0 0 20 20">
  <defs>
    <style>
      .cls-1, .cls-2 {
        fill-rule: evenodd;
      }

      .cls-1 {
        filter: url(#filter);
      }

      .cls-2 {
        filter: url(#filter-2);
      }
    </style>
    <filter id="filter" x="2" y="2" width="12" height="16" filterUnits="userSpaceOnUse">
      <feFlood result="flood" flood-color="#c7c7c7"/>
      <feComposite result="composite" operator="in" in2="SourceGraphic"/>
      <feBlend result="blend" in2="SourceGraphic"/>
    </filter>
    <filter id="filter-2" x="10" y="12" width="8" height="6" filterUnits="userSpaceOnUse">
      <feFlood result="flood" flood-color="#c7c7c7"/>
      <feComposite result="composite" operator="in" in2="SourceGraphic"/>
      <feBlend result="blend" in2="SourceGraphic"/>
    </filter>
  </defs>
  <path id="Forma_1" data-name="Forma 1" class="cls-1" d="M9.605,2a4.519,4.519,0,0,0-4.4,4.623,4.692,4.692,0,0,0,1.909,3.81,7.533,7.533,0,0,0-2.89,1.906A8.157,8.157,0,0,0,2,17.994H3.188a6.6,6.6,0,0,1,6.417-6.748A4.52,4.52,0,0,0,14,6.623,4.519,4.519,0,0,0,9.605,2Zm0,8A3.3,3.3,0,0,1,6.4,6.623,3.3,3.3,0,0,1,9.605,3.25a3.3,3.3,0,0,1,3.208,3.374A3.3,3.3,0,0,1,9.605,10Z"/>
  <path id="Forma_1-2" data-name="Forma 1" class="cls-2" d="M17.855,12.829l-0.7-.687a0.5,0.5,0,0,0-.7,0l-3.38,3.319-1.515-1.49a0.5,0.5,0,0,0-.7,0l-0.7.687a0.481,0.481,0,0,0,0,.687l1.865,1.829,0.7,0.687a0.5,0.5,0,0,0,.7,0l0.7-.687,3.73-3.657A0.481,0.481,0,0,0,17.855,12.829Z"/>
</svg>
