<svg xmlns="http://www.w3.org/2000/svg" width="18" height="18" viewBox="0 0 18 18">
  <defs>
    <style>
      .cls-1 {
        fill: #929394;
        fill-rule: evenodd;
      }
    </style>
  </defs>
  <path id="expand-icon.svg" class="cls-1" d="M627.547,217h-17.1a0.447,0.447,0,0,0-.448.449v8.2a0.448,0.448,0,0,0,.448.449,0.454,0.454,0,0,0,.453-0.449V217.9h16.2V234.1h-7.8a0.453,0.453,0,0,0,0,.905h8.242a0.453,0.453,0,0,0,.453-0.453V217.452A0.452,0.452,0,0,0,627.547,217ZM610,234.544a0.451,0.451,0,0,0,.449.452h6.27a0.452,0.452,0,0,0,.452-0.452v-6.265a0.452,0.452,0,0,0-.452-0.453h-6.267a0.449,0.449,0,0,0-.448.453v6.265h0Zm0.9-5.816h5.369V234.1H610.9v-5.367Zm7.3-1.932a0.453,0.453,0,0,0,.641,0l5.1-5.1v2.939a0.453,0.453,0,1,0,.906,0v-4.024a0.453,0.453,0,0,0-.453-0.453h-4.029a0.453,0.453,0,1,0,0,.905h2.94l-5.1,5.1A0.449,0.449,0,0,0,618.2,226.8Z" transform="translate(-610 -217)"/>
</svg>
