<?xml version="1.0" encoding="utf-8"?>
<!-- Generator: Adobe Illustrator 22.0.1, SVG Export Plug-In . SVG Version: 6.00 Build 0)  -->
<svg version="1.1" id="Layer_1" xmlns="http://www.w3.org/2000/svg" xmlns:xlink="http://www.w3.org/1999/xlink" x="0px" y="0px"
	 viewBox="0 0 48 48" style="enable-background:new 0 0 48 48;" xml:space="preserve">
<style type="text/css">
	.st0{fill:none;}
</style>
<g>
	<path class="st0" d="M16.3,6.7c0-1.8-1.5-3.3-3.3-3.3c-1.8,0-3.3,1.5-3.3,3.3c0,1.8,1.5,3.3,3.3,3.3C14.9,10,16.3,8.5,16.3,6.7z"/>
	<path class="st0" d="M38.9,6.7c0-1.8-1.5-3.3-3.3-3.3c-1.8,0-3.3,1.5-3.3,3.3c0,1.8,1.5,3.3,3.3,3.3C37.4,10,38.9,8.5,38.9,6.7z"/>
	<path class="st0" d="M5.6,14.8C5.6,14.8,5.6,14.8,5.6,14.8l0,11.8c0,0,0,0,0,0h1.3c0.7,0,1.2,0.5,1.2,1.2v15.9
		c0,0.5,0.4,0.8,0.8,0.8h0.7c0.6,0,0.8-0.6,0.8-1c0.3-2.5,1.3-9.6,1.3-9.6c0.1-0.6,0.6-1,1.2-1c0,0,0,0,0,0c0.6,0,1.1,0.4,1.2,1.1
		c0,0.1,1,7.3,1.3,9.6c0,0.4,0.3,1,0.8,1h0.7c0.5,0,0.8-0.4,0.8-0.8V27.8c0-0.7,0.5-1.2,1.2-1.2h1.3c0,0,0,0,0,0V14.8c0,0,0,0,0,0
		H5.6z"/>
	<path class="st0" d="M37.9,14.8l-1,1.2l1.2,7.1c0.1,0.4,0,0.7-0.3,1l-1.3,1.5c-0.2,0.3-0.6,0.4-0.9,0.4c-0.4,0-0.7-0.2-0.9-0.4
		l-1.3-1.5c-0.2-0.3-0.3-0.6-0.3-1l1.2-7.1l-1-1.2h-5.2c0,0,0,0,0,0v13.5h14.9V14.8c0,0,0,0,0,0H37.9z"/>
	<path d="M45.8,28.3h-0.2V14.8c0-1.4-1.1-2.5-2.5-2.5h-6.9c2.9-0.3,5.2-2.7,5.2-5.7c0-3.1-2.6-5.7-5.7-5.7c-3.2,0-5.7,2.6-5.7,5.7
		c0,3,2.3,5.4,5.2,5.7l-6.9,0c-1.4,0-2.5,1.1-2.5,2.5v13.5h-3.5c0.4-0.4,0.7-1.1,0.7-1.7V14.8c0-1.4-1.1-2.5-2.5-2.5h-6.9
		c2.9-0.3,5.2-2.7,5.2-5.7C18.8,3.6,16.2,1,13,1C9.9,1,7.3,3.6,7.3,6.7c0,3,2.3,5.4,5.2,5.7l-6.9,0c-1.4,0-2.5,1.1-2.5,2.5v11.8
		c0,0.7,0.3,1.3,0.7,1.7H2.2c-0.7,0-1.2,0.5-1.2,1.2c0,0.7,0.5,1.2,1.2,1.2h3.5v12.9C5.7,45.5,7.2,47,9,47h0.7c1.7,0,3-1.3,3.3-3.1
		c0-0.2,0.1-0.5,0.1-0.8c0,0.3,0.1,0.6,0.1,0.9c0.2,1.8,1.6,3.1,3.3,3.1h0.7c1.8,0,3.3-1.5,3.3-3.3V30.8h25.4c0.7,0,1.2-0.5,1.2-1.2
		C47,28.9,46.5,28.3,45.8,28.3z M9.8,6.7c0-1.8,1.5-3.3,3.3-3.3c1.8,0,3.3,1.5,3.3,3.3c0,1.8-1.5,3.3-3.3,3.3
		C11.2,10,9.8,8.5,9.8,6.7z M20.5,26.6C20.5,26.6,20.5,26.6,20.5,26.6l-1.3,0c-0.7,0-1.2,0.5-1.2,1.2v15.9c0,0.5-0.4,0.8-0.8,0.8
		h-0.7c-0.6,0-0.8-0.6-0.8-1c-0.3-2.4-1.3-9.5-1.3-9.6c-0.1-0.6-0.6-1.1-1.2-1.1c0,0,0,0,0,0c-0.6,0-1.1,0.4-1.2,1
		c0,0.1-1,7.2-1.3,9.6c0,0.4-0.3,1-0.8,1H9c-0.5,0-0.8-0.4-0.8-0.8V27.8c0-0.7-0.5-1.2-1.2-1.2H5.6c0,0,0,0,0,0V14.8c0,0,0,0,0,0
		h14.9c0,0,0,0,0,0V26.6z M32.4,6.7c0-1.8,1.5-3.3,3.3-3.3c1.8,0,3.3,1.5,3.3,3.3c0,1.8-1.5,3.3-3.3,3.3C33.8,10,32.4,8.5,32.4,6.7z
		 M43.1,28.3H28.2V14.8c0,0,0,0,0,0h5.2l1,1.2l-1.2,7.1c-0.1,0.4,0,0.7,0.3,1l1.3,1.5c0.2,0.3,0.6,0.4,0.9,0.4
		c0.4,0,0.7-0.2,0.9-0.4l1.3-1.5c0.2-0.3,0.3-0.6,0.3-1L36.9,16l1-1.2h5.2c0,0,0,0,0,0V28.3z"/>
</g>
</svg>
