<?xml version="1.0" encoding="utf-8"?>
<!-- Generator: Adobe Illustrator 22.0.1, SVG Export Plug-In . SVG Version: 6.00 Build 0)  -->
<svg version="1.1" id="Layer_1" xmlns="http://www.w3.org/2000/svg" xmlns:xlink="http://www.w3.org/1999/xlink" x="0px" y="0px"
	 viewBox="0 0 48 48" style="enable-background:new 0 0 48 48;" xml:space="preserve">
<style type="text/css">
	.st0{fill:none;}
</style>
<g>
	<path class="st0" d="M44.4,12.3c0-1.7-1.4-3-3.1-3H6.6c-1.7,0-3.1,1.3-3.1,3v23.4c0,1.7,1.4,3,3.1,3h34.8c1.7,0,3.1-1.4,3.1-3h0
		V12.3z M41.3,36.1c-0.3,0.3-0.6,0.4-0.9,0.4c-0.3,0-0.6-0.1-0.9-0.3L28.1,25.4l-3.2,2.8c-0.2,0.2-0.6,0.3-0.9,0.3
		c-0.3,0-0.6-0.1-0.9-0.3L20,25.5L8.5,36.1c-0.2,0.2-0.6,0.3-0.9,0.3c-0.3,0-0.7-0.1-0.9-0.4c-0.5-0.5-0.5-1.3,0.1-1.8l11.3-10.5
		l-11.4-10c-0.5-0.5-0.6-1.3-0.1-1.8c0.5-0.5,1.3-0.6,1.8-0.1l12.3,10.9c0.1,0.1,0.1,0.1,0.2,0.2c0,0,0,0,0,0l3,2.7l15.5-13.7
		c0.5-0.5,1.3-0.4,1.8,0.1c0.5,0.5,0.4,1.3-0.1,1.8L30,23.7l11.3,10.6C41.8,34.7,41.8,35.5,41.3,36.1z"/>
	<path d="M41.4,6.8H6.6C3.5,6.8,1,9.2,1,12.3v23.4c0,3.1,2.5,5.5,5.6,5.5h34.7c3.1,0,5.6-2.5,5.6-5.5V12.3C47,9.2,44.5,6.8,41.4,6.8
		z M41.4,38.7H6.6c-1.7,0-3.1-1.4-3.1-3V12.3c0-1.7,1.4-3,3.1-3h34.7c1.7,0,3.1,1.3,3.1,3v23.4h0C44.4,37.3,43.1,38.7,41.4,38.7z"/>
	<path d="M30,23.7l11.2-9.9c0.5-0.5,0.6-1.3,0.1-1.8c-0.5-0.5-1.3-0.6-1.8-0.1L24,25.6l-3-2.7c0,0,0,0,0,0c-0.1-0.1-0.1-0.1-0.2-0.2
		L8.5,11.9c-0.5-0.5-1.3-0.4-1.8,0.1c-0.5,0.5-0.4,1.3,0.1,1.8l11.4,10L6.8,34.2c-0.5,0.5-0.5,1.3-0.1,1.8c0.3,0.3,0.6,0.4,0.9,0.4
		c0.3,0,0.6-0.1,0.9-0.3L20,25.5l3.1,2.7c0.2,0.2,0.6,0.3,0.9,0.3c0.3,0,0.6-0.1,0.9-0.3l3.2-2.8l11.4,10.7c0.2,0.2,0.6,0.3,0.9,0.3
		c0.3,0,0.7-0.1,0.9-0.4c0.5-0.5,0.5-1.3,0-1.8L30,23.7z"/>
</g>
</svg>
