<?xml version="1.0" encoding="utf-8"?>
<!-- Generator: Adobe Illustrator 22.0.1, SVG Export Plug-In . SVG Version: 6.00 Build 0)  -->
<svg version="1.1" id="Layer_1" xmlns="http://www.w3.org/2000/svg" xmlns:xlink="http://www.w3.org/1999/xlink" x="0px" y="0px"
	 viewBox="0 0 48 48" style="enable-background:new 0 0 48 48;" xml:space="preserve">
<style type="text/css">
	.st0{fill:none;}
</style>
<g>
	<path class="st0" d="M35.8,31.2C35.8,31.2,35.8,31.2,35.8,31.2c-0.3-0.3-0.8-0.7-1.4-0.7c-0.6,0-1.1,0.4-1.5,0.7l-3.3,3.3
		c-0.2,0.2-0.7,0.7-1.5,0.7c-0.3,0-0.6-0.1-1-0.2c0,0-0.1,0-0.1-0.1c-0.3-0.2-0.6-0.3-1-0.5c-0.4-0.2-0.8-0.4-1.2-0.7
		c-3.1-2-5.9-4.5-8.6-7.8l0,0c-1.5-1.9-2.4-3.4-3.1-5.1c0,0,0-0.1,0-0.1c-0.2-0.6-0.3-1.4,0.5-2.2c0,0,0,0,0,0
		c0.8-0.8,1.6-1.5,2.4-2.4c0.3-0.3,0.6-0.6,0.8-0.8c1-1,1-2,0-3l-2.7-2.7c-0.3-0.3-0.6-0.6-0.9-0.9c-0.6-0.6-1.2-1.2-1.7-1.7
		c0,0,0,0,0,0c-0.3-0.3-0.8-0.7-1.4-0.7c-0.5,0-1,0.2-1.5,0.7l-3.3,3.3c-0.8,0.8-1.2,1.7-1.3,2.9c-0.1,1.8,0.2,3.7,1.1,6.1
		c1.5,4,3.7,7.7,7,11.6c4,4.8,8.8,8.6,14.3,11.2c2,1,4.7,2.1,7.6,2.3c0.1,0,0.3,0,0.4,0c1.5,0,2.7-0.5,3.7-1.5
		c0.6-0.7,1.2-1.3,1.9-1.9c0.4-0.4,0.8-0.8,1.2-1.2c1-1,1-2,0-3L35.8,31.2z"/>
	<path d="M37.7,29.3c-0.9-1-2.1-1.5-3.3-1.5c-1.2,0-2.3,0.5-3.3,1.5l-3.1,3.1c-0.3-0.1-0.5-0.3-0.7-0.4c-0.3-0.2-0.7-0.3-1-0.5
		c-2.9-1.8-5.5-4.2-8-7.3c-1.2-1.5-2-2.8-2.6-4.1c0.8-0.7,1.5-1.5,2.3-2.2c0.3-0.3,0.5-0.6,0.8-0.8c2-2,2-4.7,0-6.7l-2.7-2.7
		c-0.3-0.3-0.6-0.6-0.9-0.9c-0.6-0.6-1.2-1.2-1.8-1.8c-0.9-0.9-2.1-1.4-3.3-1.4C9,3.5,7.8,4,6.9,4.9c0,0,0,0,0,0L3.6,8.3
		c-1.2,1.2-2,2.8-2.1,4.5C1.2,15.6,2,18.3,2.7,20c1.6,4.2,3.9,8.2,7.4,12.4c4.3,5.1,9.4,9.1,15.2,11.9c2.2,1.1,5.2,2.3,8.5,2.5
		c0.2,0,0.4,0,0.6,0c2.2,0,4.1-0.8,5.6-2.4c0,0,0,0,0,0c0.5-0.6,1.1-1.2,1.7-1.8c0.4-0.4,0.8-0.8,1.3-1.3c1-1,1.5-2.2,1.5-3.4
		c0-1.2-0.5-2.4-1.5-3.3L37.7,29.3z M41.2,39.6c-0.4,0.4-0.8,0.8-1.2,1.2c-0.6,0.6-1.3,1.2-1.9,1.9c-1,1-2.1,1.5-3.7,1.5
		c-0.1,0-0.3,0-0.4,0c-2.9-0.2-5.6-1.3-7.6-2.3c-5.5-2.7-10.3-6.4-14.3-11.2c-3.3-4-5.5-7.7-7-11.6c-0.9-2.4-1.2-4.3-1.1-6.1
		c0.1-1.1,0.5-2.1,1.3-2.9l3.3-3.3c0.5-0.4,1-0.7,1.5-0.7c0.6,0,1.1,0.4,1.4,0.7c0,0,0,0,0,0c0.6,0.6,1.2,1.1,1.7,1.7
		c0.3,0.3,0.6,0.6,0.9,0.9l2.7,2.7c1,1,1,2,0,3c-0.3,0.3-0.6,0.6-0.8,0.8c-0.8,0.8-1.6,1.6-2.4,2.4c0,0,0,0,0,0
		c-0.8,0.8-0.7,1.7-0.5,2.2c0,0,0,0.1,0,0.1c0.7,1.7,1.7,3.2,3.1,5.1l0,0c2.7,3.3,5.5,5.9,8.6,7.8c0.4,0.3,0.8,0.5,1.2,0.7
		c0.3,0.2,0.7,0.3,1,0.5c0,0,0.1,0,0.1,0.1c0.3,0.2,0.6,0.2,1,0.2c0.8,0,1.3-0.5,1.5-0.7l3.3-3.3c0.3-0.3,0.9-0.7,1.5-0.7
		c0.6,0,1.1,0.4,1.4,0.7c0,0,0,0,0,0l5.3,5.4C42.2,37.5,42.2,38.5,41.2,39.6z"/>
	<path d="M32.9,15.3c1.8,1.8,3,4.2,3.5,6.7c0.1,0.6,0.7,1.1,1.3,1.1c0.1,0,0.1,0,0.2,0c0.7-0.1,1.2-0.8,1.1-1.5
		c-0.5-3.1-2-5.9-4.2-8.1c-2.2-2.2-5-3.7-8.1-4.2c-0.7-0.1-1.4,0.4-1.5,1.1c-0.1,0.7,0.3,1.4,1.1,1.5C28.8,12.2,31.1,13.4,32.9,15.3
		z"/>
	<path d="M47.3,21.1c-0.9-5.1-3.3-9.7-6.9-13.4C36.7,4.1,32.1,1.7,27,0.9c-0.7-0.1-1.4,0.4-1.5,1.1c-0.1,0.7,0.4,1.4,1.1,1.5
		c4.5,0.8,8.6,2.9,11.9,6.2c3.3,3.3,5.4,7.4,6.2,11.9c0.1,0.6,0.7,1.1,1.3,1.1c0.1,0,0.1,0,0.2,0C47,22.5,47.4,21.8,47.3,21.1z"/>
</g>
</svg>
