<?xml version="1.0" encoding="utf-8"?>
<!-- Generator: Adobe Illustrator 22.0.1, SVG Export Plug-In . SVG Version: 6.00 Build 0)  -->
<svg version="1.1" id="Layer_1" xmlns="http://www.w3.org/2000/svg" xmlns:xlink="http://www.w3.org/1999/xlink" x="0px" y="0px"
	 viewBox="0 0 48 48" style="enable-background:new 0 0 48 48;" xml:space="preserve">
<style type="text/css">
	.st0{fill:none;}
</style>
<g>
	<path class="st0" d="M3.7,42.9c0,0.7,0.6,1.3,1.3,1.3h21.7c0.7,0,1.3-0.6,1.3-1.3v-4H3.7V42.9z"/>
	<path class="st0" d="M28.1,5.1c0-0.7-0.6-1.3-1.3-1.3H5.1c-0.7,0-1.3,0.6-1.3,1.3v1.3h24.4V5.1z"/>
	<path class="st0" d="M22.7,26.8V16c0-2.2,1.8-4,4-4h1.3V9.1H3.7v27.1h24.4c0-0.6,0-4.8,0-5.4h-1.3C24.6,30.8,22.7,29,22.7,26.8z"/>
	<path class="st0" d="M42.9,14.7H26.8c-0.7,0-1.3,0.6-1.3,1.3v10.8c0,0.7,0.6,1.3,1.3,1.3h2.7c0.7,0,1.3,0.6,1.3,1.3v0v2.1l3.1-3.1
		c0.3-0.3,0.6-0.4,1-0.4h8.1c0.7,0,1.3-0.6,1.3-1.3V16C44.3,15.3,43.7,14.7,42.9,14.7z M34.9,25.4h-5.4c-0.7,0-1.3-0.6-1.3-1.3
		c0-0.7,0.6-1.3,1.3-1.3h5.4c0.7,0,1.3,0.6,1.3,1.3C36.2,24.8,35.6,25.4,34.9,25.4z M40.3,20.1H29.5c-0.7,0-1.3-0.6-1.3-1.3
		c0-0.7,0.6-1.3,1.3-1.3h10.8c0.7,0,1.3,0.6,1.3,1.3C41.6,19.4,41,20.1,40.3,20.1z"/>
	<path d="M42.9,12H30.8V5.1c0-2.2-1.8-4-4-4H5.1c-2.2,0-4,1.8-4,4v37.9c0,2.2,1.8,4,4,4h21.7c2.2,0,4-1.8,4-4v-7.5l4.6-4.6h7.5
		c2.2,0,4-1.8,4-4V16C47,13.8,45.2,12,42.9,12z M3.7,5.1c0-0.7,0.6-1.3,1.3-1.3h21.7c0.7,0,1.3,0.6,1.3,1.3v1.3H3.7V5.1z M28.1,42.9
		c0,0.7-0.6,1.3-1.3,1.3H5.1c-0.7,0-1.3-0.6-1.3-1.3v-4h24.4V42.9z M28.1,36.2H3.7V9.1h24.4V12h-1.3c-2.2,0-4,1.8-4,4v10.8
		c0,2.2,1.8,4,4,4h1.3C28.1,31.4,28.1,35.6,28.1,36.2z M44.3,26.8c0,0.7-0.6,1.3-1.3,1.3h-8.1c-0.4,0-0.7,0.1-1,0.4l-3.1,3.1v-2.1v0
		c0-0.7-0.6-1.3-1.3-1.3h-2.7c-0.7,0-1.3-0.6-1.3-1.3V16c0-0.7,0.6-1.3,1.3-1.3h16.2c0.7,0,1.3,0.6,1.3,1.3V26.8z"/>
	<path d="M40.3,17.4H29.5c-0.7,0-1.3,0.6-1.3,1.3c0,0.7,0.6,1.3,1.3,1.3h10.8c0.7,0,1.3-0.6,1.3-1.3C41.6,18,41,17.4,40.3,17.4z"/>
	<path d="M34.9,22.7h-5.4c-0.7,0-1.3,0.6-1.3,1.3c0,0.7,0.6,1.3,1.3,1.3h5.4c0.7,0,1.3-0.6,1.3-1.3C36.2,23.3,35.6,22.7,34.9,22.7z"
		/>
</g>
</svg>
