<?xml version="1.0" encoding="utf-8"?>
<!-- Generator: Adobe Illustrator 22.0.1, SVG Export Plug-In . SVG Version: 6.00 Build 0)  -->
<svg version="1.1" id="Layer_1" xmlns="http://www.w3.org/2000/svg" xmlns:xlink="http://www.w3.org/1999/xlink" x="0px" y="0px"
	 viewBox="0 0 48 48" style="enable-background:new 0 0 48 48;" xml:space="preserve">
<style type="text/css">
	.st0{fill:#252729;}
</style>
<path class="st0" d="M30.3,13.2H16.5c-0.4-2.6-3-4.4-5.8-3.8C8,10.1,6.4,12.6,7,15.2s3.2,4.4,5.8,3.8c2-0.4,3.4-2,3.8-3.8h9.2v3
	c0,0.6,0.4,1,1,1c0.6,0,1-0.4,1-1v-3h1.6v1.6c0,0.6,0.4,1,1,1c0.6,0,1-0.4,1-1v-2.6C31.3,13.8,30.9,13.2,30.3,13.2z M12,17.2
	c-1.6,0-3-1.2-3-2.8s1.2-3,2.8-3s3,1.2,3,2.8l0,0C14.7,15.8,13.5,17.2,12,17.2z M43.2,37.9c1-1.2,1.6-2.8,1.6-4.4v-3
	c0-3.4-2.4-6.2-5.6-6.6V6.5c0-2.4-2-4.4-4.2-4.4H4.2C1.8,2.1,0,4.1,0,6.5v20.7c0,2.4,1.8,4.4,4.2,4.4h10c0,2-0.4,4-1,5.8h-2.6
	c-0.6,0-1,0.4-1,1c0,0.6,0.4,1,1,1h17.9c0.6,0,1-0.4,1-1c0-0.6-0.4-1-1-1h-2.4c-0.6-1.8-1-3.8-1-5.8h6.8v2c0,1.6,0.6,3.2,1.6,4.4
	c-2.8,1.2-4.6,4-4.6,7c0,0.6,0.4,1,1,1H47c0.6,0,1-0.4,1-1C47.8,41.9,46,39.1,43.2,37.9z M15.1,37.1c0.4-1.8,0.8-3.8,0.8-5.8h7.2
	c0,2,0.4,4,1,5.8H15.1L15.1,37.1z M31.9,29.4H4.2c-1.2,0-2.4-1-2.4-2.4v-0.8h31.3C32.5,27.4,32.1,28.4,31.9,29.4z M2,24.4V6.5
	c0-1.4,1-2.4,2.2-2.4h30.9c1.2,0,2.4,1,2.4,2.4v17.3c-0.6,0.2-1.2,0.4-1.8,0.6H2L2,24.4z"/>
</svg>
