<?xml version="1.0" encoding="utf-8"?>
<!-- Generator: Adobe Illustrator 22.0.1, SVG Export Plug-In . SVG Version: 6.00 Build 0)  -->
<svg version="1.1" id="Layer_1" xmlns="http://www.w3.org/2000/svg" xmlns:xlink="http://www.w3.org/1999/xlink" x="0px" y="0px"
	 viewBox="0 0 48 48" style="enable-background:new 0 0 48 48;" xml:space="preserve">
<style type="text/css">
	.st0{fill:#252729;}
</style>
<path class="st0" d="M38.2,27v-3c0-0.4-0.4-0.8-0.8-0.8H24.6V21c5.8-0.4,10.2-5.4,9.8-11.2C34,4,29-0.4,23.2,0s-10,5.4-9.6,11.2
	c0.4,5.2,4.4,9.4,9.6,9.8v2.2H10.6c-0.4,0-0.8,0.4-0.8,0.8v3C4,27.4-0.4,32.4,0,38.2S5.4,48.4,11.2,48c5.8-0.4,10.2-5.4,9.8-11.2
	c-0.4-5.2-4.6-9.4-9.8-9.8v-2.2h25.6V27C31,27.4,26.6,32.4,27,38.2c0.4,5.8,5.4,10.2,11.2,9.8c5.8-0.4,10.2-5.4,9.8-11.2
	C47.6,31.6,43.4,27.4,38.2,27z M15.8,44.8c-3.2,2.2-7.4,2.2-10.6,0v-2c0-1.8,1-3.6,2.6-4.6c1.6,1,3.6,1,5.2,0c1.6,1,2.6,2.6,2.6,4.6
	v2H15.8z M7.6,34.4c0-1.6,1.4-3,3-3s3,1.4,3,3c0,1.6-1.4,3-3,3C8.8,37.4,7.6,36.2,7.6,34.4L7.6,34.4z M19.6,37.4
	c0,2.2-0.8,4.4-2.2,6v-0.6c0-2.2-1.2-4.4-3-5.6c1.4-2,1-4.8-1-6.2c-2-1.4-4.8-1-6.2,1c-1,1.6-1,3.6,0,5.2c-2,1.2-3,3.4-3,5.6v0.6
	C1,39.6,1.2,34,5,30.6c3.8-3.2,9.4-3,12.8,0.8C18.8,33.2,19.6,35.4,19.6,37.4L19.6,37.4z M17.2,16.4C14,12.6,14.4,7,18,3.8
	c3.8-3.2,9.4-3,12.8,0.8c3,3.4,3,8.4,0,11.8v-0.6c0-2.2-1.2-4.4-3-5.6c1.4-2,1-4.8-1-6.2S22,3,20.6,5c-1,1.6-1,3.6,0,5.2
	c-2,1.2-3,3.4-3,5.6v0.6H17.2z M27,7.4c0,1.6-1.4,3-3,3s-3-1.4-3-3s1.4-3,3-3C25.6,4.4,27,5.8,27,7.4L27,7.4L27,7.4z M18.8,17.8v-2
	c0-1.8,1-3.6,2.6-4.6c1.6,1,3.6,1,5.2,0c1.6,1,2.6,2.6,2.6,4.6v2C26.2,20,21.8,20,18.8,17.8z M42.8,44.8c-3.2,2.2-7.4,2.2-10.6,0v-2
	c0-1.8,1-3.6,2.6-4.6c1.6,1,3.6,1,5.2,0c1.6,1,2.6,2.6,2.6,4.6v2H42.8z M34.6,34.6c0-1.6,1.4-3,3-3s3,1.4,3,3c0,1.6-1.4,3-3,3
	C35.8,37.4,34.6,36.2,34.6,34.6L34.6,34.6z M44.2,43.4v-0.6c0-2.2-1.2-4.4-3-5.6c1.4-2,1-4.8-1-6.2c-2-1.4-4.8-1-6.2,1
	c-1,1.6-1,3.6,0,5.2c-2,1.2-3,3.4-3,5.6v0.6c-3.2-3.8-3-9.4,0.8-12.8c3.8-3.2,9.4-3,12.8,0.8C47.2,35,47.2,40,44.2,43.4L44.2,43.4z"
	/>
</svg>
